{
	"patcher" : 	{
		"fileversion" : 1,
		"appversion" : 		{
			"major" : 6,
			"minor" : 1,
			"revision" : 2,
			"architecture" : "x86"
		}
,
		"rect" : [ 546.0, 154.0, 344.0, 506.0 ],
		"bglocked" : 0,
		"openinpresentation" : 1,
		"default_fontsize" : 10.0,
		"default_fontface" : 0,
		"default_fontname" : "Arial",
		"gridonopen" : 0,
		"gridsize" : [ 5.0, 5.0 ],
		"gridsnaponopen" : 0,
		"statusbarvisible" : 0,
		"toolbarvisible" : 1,
		"boxanimatetime" : 200,
		"imprint" : 0,
		"enablehscroll" : 1,
		"enablevscroll" : 1,
		"devicewidth" : 0.0,
		"description" : "",
		"digest" : "",
		"tags" : "",
		"boxes" : [ 			{
				"box" : 				{
					"fontname" : "Arial",
					"fontsize" : 10.0,
					"id" : "obj-44",
					"linecount" : 2,
					"maxclass" : "message",
					"numinlets" : 2,
					"numoutlets" : 1,
					"outlettype" : [ "" ],
					"patching_rect" : [ 490.0, 620.0, 74.0, 27.0 ],
					"text" : ";\rmax showclue"
				}

			}
, 			{
				"box" : 				{
					"annotation" : "[PT] Abrir janela de ajuda. [ENG] Open clue window.",
					"bgcolor" : [ 0.901961, 0.901961, 0.901961, 1.0 ],
					"bordercolor" : [ 0.501961, 0.501961, 0.501961, 1.0 ],
					"fontname" : "Arial",
					"fontsize" : 10.0,
					"hint" : "ajuda / help",
					"id" : "obj-288",
					"maxclass" : "textbutton",
					"numinlets" : 1,
					"numoutlets" : 3,
					"outlettype" : [ "", "", "int" ],
					"parameter_enable" : 0,
					"patching_rect" : [ 490.0, 592.0, 50.0, 20.0 ],
					"presentation" : 1,
					"presentation_rect" : [ 12.0, 11.0, 30.0, 19.0 ],
					"rounded" : 6.0,
					"text" : "?"
				}

			}
, 			{
				"box" : 				{
					"annotation" : "[PT] Abre janela de preferências do áudio. [ENG] Open audio preferences window.",
					"bgcolor" : [ 0.4, 0.4, 0.4, 0.3 ],
					"bgoncolor" : [ 0.901961, 0.901961, 0.901961, 1.0 ],
					"bgovercolor" : [ 0.901961, 0.901961, 0.901961, 1.0 ],
					"bordercolor" : [ 0.298039, 0.298039, 0.298039, 0.0 ],
					"borderoncolor" : [ 0.901961, 0.901961, 0.901961, 0.0 ],
					"fontface" : 1,
					"fontname" : "Arial Bold",
					"fontsize" : 32.0,
					"hint" : "",
					"id" : "obj-23",
					"maxclass" : "textbutton",
					"numinlets" : 1,
					"numoutlets" : 3,
					"outlettype" : [ "", "", "int" ],
					"parameter_enable" : 0,
					"patching_rect" : [ 423.5, 592.0, 52.0, 23.875 ],
					"presentation" : 1,
					"presentation_rect" : [ 15.0, 365.25, 40.0, 40.0 ],
					"prototypename" : "oi.audioprefs",
					"rounded" : 127.0,
					"text" : "+",
					"textcolor" : [ 1.0, 0.957593, 0.62963, 1.0 ],
					"textovercolor" : [ 1.0, 1.0, 0.4, 1.0 ]
				}

			}
, 			{
				"box" : 				{
					"fontname" : "Arial",
					"fontsize" : 10.0,
					"id" : "obj-13",
					"linecount" : 2,
					"maxclass" : "message",
					"numinlets" : 2,
					"numoutlets" : 1,
					"outlettype" : [ "" ],
					"patching_rect" : [ 423.5, 620.0, 52.0, 27.0 ],
					"text" : ";\rdsp open"
				}

			}
, 			{
				"box" : 				{
					"color" : [ 0.627451, 0.627451, 0.627451, 1.0 ],
					"fontname" : "Arial",
					"fontsize" : 28.801369,
					"id" : "obj-2",
					"maxclass" : "newobj",
					"numinlets" : 1,
					"numoutlets" : 0,
					"patching_rect" : [ 588.5, 75.0, 151.0, 39.0 ],
					"saved_object_attributes" : 					{
						"allwindowsactive" : 0,
						"audiosupport" : 1,
						"cantclosetoplevelpatchers" : 1,
						"database" : 0,
						"extensions" : 1,
						"midisupport" : 1,
						"noloadbangdefeating" : 0,
						"overdrive" : 0,
						"preffilename" : "simplerSynth Preferences",
						"searchformissingfiles" : 1,
						"statusvisible" : 0,
						"usesearchpath" : 0
					}
,
					"text" : "standalone"
				}

			}
, 			{
				"box" : 				{
					"fontname" : "Arial",
					"fontsize" : 10.0,
					"id" : "obj-1",
					"maxclass" : "newobj",
					"numinlets" : 1,
					"numoutlets" : 1,
					"outlettype" : [ "" ],
					"patching_rect" : [ 418.5, 556.0, 62.0, 18.0 ],
					"text" : "loadmess 1"
				}

			}
, 			{
				"box" : 				{
					"fontname" : "Geneva",
					"fontsize" : 9.0,
					"id" : "obj-146",
					"maxclass" : "newobj",
					"numinlets" : 1,
					"numoutlets" : 1,
					"outlettype" : [ "bang" ],
					"patching_rect" : [ 323.0, 323.5, 49.0, 18.0 ],
					"text" : "loadbang"
				}

			}
, 			{
				"box" : 				{
					"fontname" : "Arial",
					"fontsize" : 10.0,
					"id" : "obj-147",
					"maxclass" : "message",
					"numinlets" : 2,
					"numoutlets" : 1,
					"outlettype" : [ "" ],
					"patching_rect" : [ 323.0, 348.5, 174.0, 16.0 ],
					"text" : "read CdM_Digitopia-01.png, autofit 1"
				}

			}
, 			{
				"box" : 				{
					"fontname" : "Arial",
					"fontsize" : 10.0,
					"id" : "obj-142",
					"maxclass" : "newobj",
					"numinlets" : 2,
					"numoutlets" : 1,
					"outlettype" : [ "" ],
					"patching_rect" : [ 107.5, 369.0, 32.5, 18.0 ],
					"text" : "gate"
				}

			}
, 			{
				"box" : 				{
					"fontname" : "Arial",
					"fontsize" : 10.0,
					"id" : "obj-141",
					"maxclass" : "message",
					"numinlets" : 2,
					"numoutlets" : 1,
					"outlettype" : [ "" ],
					"patching_rect" : [ 175.0, 470.0, 47.0, 16.0 ],
					"text" : "bend $1"
				}

			}
, 			{
				"box" : 				{
					"fontname" : "Arial",
					"fontsize" : 10.0,
					"id" : "obj-137",
					"maxclass" : "newobj",
					"numinlets" : 1,
					"numoutlets" : 7,
					"outlettype" : [ "", "", "", "int", "int", "int", "int" ],
					"patching_rect" : [ 107.5, 390.0, 100.0, 18.0 ],
					"text" : "midiparse"
				}

			}
, 			{
				"box" : 				{
					"fontname" : "Arial",
					"fontsize" : 10.0,
					"id" : "obj-127",
					"maxclass" : "newobj",
					"numinlets" : 1,
					"numoutlets" : 1,
					"outlettype" : [ "int" ],
					"patching_rect" : [ 120.5, 344.0, 37.0, 18.0 ],
					"text" : "midiin"
				}

			}
, 			{
				"box" : 				{
					"fontname" : "Arial",
					"fontsize" : 10.0,
					"id" : "obj-103",
					"maxclass" : "newobj",
					"numinlets" : 1,
					"numoutlets" : 1,
					"outlettype" : [ "int" ],
					"patching_rect" : [ 15.0, 445.0, 50.0, 18.0 ],
					"text" : "midiflush"
				}

			}
, 			{
				"box" : 				{
					"fontname" : "Arial",
					"fontsize" : 10.0,
					"id" : "obj-98",
					"maxclass" : "newobj",
					"numinlets" : 1,
					"numoutlets" : 7,
					"outlettype" : [ "", "", "", "int", "int", "int", "int" ],
					"patching_rect" : [ 15.0, 470.0, 100.0, 18.0 ],
					"text" : "midiparse"
				}

			}
, 			{
				"box" : 				{
					"fontname" : "Arial",
					"fontsize" : 10.0,
					"id" : "obj-90",
					"maxclass" : "newobj",
					"numinlets" : 7,
					"numoutlets" : 1,
					"outlettype" : [ "int" ],
					"patching_rect" : [ 28.5, 420.0, 100.0, 18.0 ],
					"text" : "midiformat"
				}

			}
, 			{
				"box" : 				{
					"fontname" : "Arial",
					"fontsize" : 10.0,
					"id" : "obj-132",
					"maxclass" : "newobj",
					"numinlets" : 1,
					"numoutlets" : 4,
					"outlettype" : [ "", "", "", "" ],
					"patching_rect" : [ 255.0, 25.0, 59.5, 18.0 ],
					"restore" : 					{
						"input_mode" : [ 0 ],
						"live.gain~" : [ 0.0 ],
						"midi_device" : [ "to Max 1" ],
						"panic" : [ -1 ]
					}
,
					"text" : "autopattr",
					"varname" : "u958004291"
				}

			}
, 			{
				"box" : 				{
					"fontname" : "Arial",
					"fontsize" : 10.0,
					"frgb" : 0.0,
					"id" : "obj-126",
					"maxclass" : "comment",
					"numinlets" : 1,
					"numoutlets" : 0,
					"patching_rect" : [ 266.5, 228.0, 76.0, 18.0 ],
					"presentation" : 1,
					"presentation_rect" : [ 17.0, 74.5, 76.0, 18.0 ],
					"text" : "keyboard input"
				}

			}
, 			{
				"box" : 				{
					"fontname" : "Arial",
					"fontsize" : 10.0,
					"frgb" : 0.0,
					"id" : "obj-124",
					"maxclass" : "comment",
					"numinlets" : 1,
					"numoutlets" : 0,
					"patching_rect" : [ 178.0, 318.0, 53.0, 18.0 ],
					"text" : "midi input"
				}

			}
, 			{
				"box" : 				{
					"fontname" : "Arial",
					"fontsize" : 12.0,
					"frgb" : 0.0,
					"id" : "obj-122",
					"maxclass" : "comment",
					"numinlets" : 1,
					"numoutlets" : 0,
					"patching_rect" : [ 408.0, 160.0, 55.0, 20.0 ],
					"presentation" : 1,
					"presentation_rect" : [ 239.5, 149.0, 55.0, 20.0 ],
					"text" : "register"
				}

			}
, 			{
				"box" : 				{
					"fontname" : "Arial",
					"fontsize" : 12.0,
					"frgb" : 0.0,
					"id" : "obj-120",
					"maxclass" : "comment",
					"numinlets" : 1,
					"numoutlets" : 0,
					"patching_rect" : [ 582.5, 145.5, 55.0, 20.0 ],
					"presentation" : 1,
					"presentation_rect" : [ 239.5, 89.5, 55.0, 20.0 ],
					"text" : "velocity "
				}

			}
, 			{
				"box" : 				{
					"fontname" : "Geneva",
					"fontsize" : 7.0,
					"frgb" : 0.0,
					"id" : "obj-117",
					"linecount" : 3,
					"maxclass" : "comment",
					"numinlets" : 1,
					"numoutlets" : 0,
					"patching_rect" : [ 520.0, 393.0, 124.0, 33.0 ],
					"presentation" : 1,
					"presentation_linecount" : 3,
					"presentation_rect" : [ 202.0, 457.375, 130.0, 33.0 ],
					"text" : "extra-credits: 'pitch~' external by Tristan Jehan, Adrian Freed and Michael Zbyszynski",
					"textcolor" : [ 0.298039, 0.298039, 0.298039, 1.0 ]
				}

			}
, 			{
				"box" : 				{
					"fontname" : "Arial",
					"fontsize" : 10.0,
					"id" : "obj-110",
					"maxclass" : "message",
					"numinlets" : 2,
					"numoutlets" : 1,
					"outlettype" : [ "" ],
					"patching_rect" : [ 550.0, 520.0, 56.0, 16.0 ],
					"text" : "writeagain"
				}

			}
, 			{
				"box" : 				{
					"annotation" : "[PT] Guardar predefinições. [ENG] Save preset file.",
					"bgcolor" : [ 0.901961, 0.901961, 0.901961, 1.0 ],
					"bordercolor" : [ 0.501961, 0.501961, 0.501961, 1.0 ],
					"fontname" : "Arial",
					"fontsize" : 10.0,
					"hint" : "",
					"id" : "obj-109",
					"maxclass" : "textbutton",
					"numinlets" : 1,
					"numoutlets" : 3,
					"outlettype" : [ "", "", "int" ],
					"parameter_enable" : 0,
					"patching_rect" : [ 550.0, 495.0, 50.0, 20.0 ],
					"presentation" : 1,
					"presentation_rect" : [ 197.0, 11.0, 41.5, 19.0 ],
					"rounded" : 6.0,
					"text" : "save"
				}

			}
, 			{
				"box" : 				{
					"annotation" : "[PT] Abrir ficheiro de predefinições. [ENG] Open preset file. ",
					"bgcolor" : [ 0.901961, 0.901961, 0.901961, 1.0 ],
					"bordercolor" : [ 0.501961, 0.501961, 0.501961, 1.0 ],
					"fontname" : "Arial",
					"fontsize" : 10.0,
					"hint" : "",
					"id" : "obj-108",
					"maxclass" : "textbutton",
					"numinlets" : 1,
					"numoutlets" : 3,
					"outlettype" : [ "", "", "int" ],
					"parameter_enable" : 0,
					"patching_rect" : [ 667.5, 495.0, 50.0, 20.0 ],
					"presentation" : 1,
					"presentation_rect" : [ 286.5, 11.0, 41.5, 19.0 ],
					"rounded" : 6.0,
					"text" : "load"
				}

			}
, 			{
				"box" : 				{
					"annotation" : "[PT] Guardar ficheiro de predefinições como... [ENG] Save preset file as...",
					"bgcolor" : [ 0.901961, 0.901961, 0.901961, 1.0 ],
					"bordercolor" : [ 0.501961, 0.501961, 0.501961, 1.0 ],
					"fontname" : "Arial",
					"fontsize" : 10.0,
					"hint" : "",
					"id" : "obj-107",
					"maxclass" : "textbutton",
					"numinlets" : 1,
					"numoutlets" : 3,
					"outlettype" : [ "", "", "int" ],
					"parameter_enable" : 0,
					"patching_rect" : [ 610.0, 495.0, 50.0, 20.0 ],
					"presentation" : 1,
					"presentation_rect" : [ 242.0, 11.0, 41.5, 19.0 ],
					"rounded" : 6.0,
					"text" : "save as"
				}

			}
, 			{
				"box" : 				{
					"fontname" : "Arial",
					"fontsize" : 10.0,
					"id" : "obj-105",
					"maxclass" : "message",
					"numinlets" : 2,
					"numoutlets" : 1,
					"outlettype" : [ "" ],
					"patching_rect" : [ 667.5, 520.0, 32.5, 16.0 ],
					"text" : "read"
				}

			}
, 			{
				"box" : 				{
					"fontname" : "Arial",
					"fontsize" : 10.0,
					"id" : "obj-104",
					"maxclass" : "message",
					"numinlets" : 2,
					"numoutlets" : 1,
					"outlettype" : [ "" ],
					"patching_rect" : [ 610.0, 520.0, 32.5, 16.0 ],
					"text" : "write"
				}

			}
, 			{
				"box" : 				{
					"active1" : [ 0.727799, 1.0, 0.651992, 1.0 ],
					"active2" : [ 0.2, 0.8, 0.6, 1.0 ],
					"annotation" : "[PT] Pressionar com o rato para seleccionar predefinções, ou deixar premida a tecla \"shift\" e pressionar com o rato para gravar as predefinições. [ENG] Click to load preset or 'shift+click' to store preset",
					"bgcolor" : [ 0.901961, 0.901961, 0.901961, 1.0 ],
					"bordercolor" : [ 0.501961, 0.501961, 0.501961, 1.0 ],
					"clicked1" : [ 0.929412, 0.905882, 0.560784, 1.0 ],
					"clicked2" : [ 1.0, 1.0, 0.4, 1.0 ],
					"hint" : "",
					"id" : "obj-102",
					"maxclass" : "preset",
					"numinlets" : 1,
					"numoutlets" : 4,
					"outlettype" : [ "preset", "int", "preset", "int" ],
					"patching_rect" : [ 725.0, 461.0, 95.0, 102.0 ],
					"pattrstorage" : "simpler-presets",
					"presentation" : 1,
					"presentation_rect" : [ 47.0, 11.0, 144.0, 19.0 ]
				}

			}
, 			{
				"box" : 				{
					"fontname" : "Arial",
					"fontsize" : 10.0,
					"id" : "obj-101",
					"maxclass" : "newobj",
					"numinlets" : 1,
					"numoutlets" : 1,
					"outlettype" : [ "" ],
					"patching_rect" : [ 610.0, 575.0, 214.0, 18.0 ],
					"priority" : 					{
						"sampler::file-path" : -1,
						"keyboard::register" : -6
					}
,
					"saved_object_attributes" : 					{
						"client_rect" : [ 100, 100, 758, 436 ],
						"parameter_enable" : 0,
						"storage_rect" : [ 200, 200, 800, 500 ]
					}
,
					"text" : "pattrstorage simpler-presets @changemode 1",
					"varname" : "simpler-presets"
				}

			}
, 			{
				"box" : 				{
					"fontname" : "Arial",
					"fontsize" : 10.0,
					"id" : "obj-99",
					"maxclass" : "message",
					"numinlets" : 2,
					"numoutlets" : 1,
					"outlettype" : [ "" ],
					"patching_rect" : [ 73.0, 63.0, 49.0, 16.0 ],
					"text" : "offset $1"
				}

			}
, 			{
				"box" : 				{
					"bgcolor" : [ 0.927858, 0.904379, 0.56191, 1.0 ],
					"color" : [ 0.65098, 0.65098, 0.65098, 1.0 ],
					"fontface" : 3,
					"fontname" : "Arial",
					"fontsize" : 10.0,
					"id" : "obj-97",
					"linecount" : 2,
					"maxclass" : "newobj",
					"numinlets" : 1,
					"numoutlets" : 3,
					"outlettype" : [ "", "", "" ],
					"patching_rect" : [ 73.0, 25.0, 169.0, 29.0 ],
					"restore" : [ 36 ],
					"saved_object_attributes" : 					{
						"parameter_enable" : 0
					}
,
					"text" : "pattr @bindto keyboard::register @invisible 1 @autorestore 0",
					"varname" : "u068004130"
				}

			}
, 			{
				"box" : 				{
					"annotation" : "[PT] Registo agudo do teclado do computador. [ENG] Computer's keyboard upper register.",
					"bordercolor" : [ 0.501961, 0.501961, 0.501961, 1.0 ],
					"fontname" : "Arial",
					"fontsize" : 12.0,
					"format" : 4,
					"id" : "obj-96",
					"ignoreclick" : 1,
					"maxclass" : "number",
					"maximum" : 127,
					"minimum" : 0,
					"numinlets" : 1,
					"numoutlets" : 2,
					"outlettype" : [ "int", "bang" ],
					"parameter_enable" : 0,
					"patching_rect" : [ 386.0, 273.0, 42.0, 20.0 ],
					"presentation" : 1,
					"presentation_rect" : [ 279.5, 166.5, 40.0, 20.0 ],
					"triangle" : 0
				}

			}
, 			{
				"box" : 				{
					"fontname" : "Arial",
					"fontsize" : 10.0,
					"id" : "obj-95",
					"maxclass" : "newobj",
					"numinlets" : 2,
					"numoutlets" : 1,
					"outlettype" : [ "int" ],
					"patching_rect" : [ 386.0, 248.0, 32.5, 18.0 ],
					"text" : "+ 14"
				}

			}
, 			{
				"box" : 				{
					"fontname" : "Arial",
					"fontsize" : 10.0,
					"frgb" : 0.0,
					"id" : "obj-91",
					"maxclass" : "comment",
					"numinlets" : 1,
					"numoutlets" : 0,
					"patching_rect" : [ 408.0, 185.0, 84.0, 18.0 ],
					"presentation" : 1,
					"presentation_rect" : [ 240.5, 186.5, 84.0, 18.0 ],
					"text" : "keys X: +1, Z: -1"
				}

			}
, 			{
				"box" : 				{
					"fontname" : "Arial",
					"fontsize" : 10.0,
					"id" : "obj-92",
					"maxclass" : "message",
					"numinlets" : 2,
					"numoutlets" : 1,
					"outlettype" : [ "" ],
					"patching_rect" : [ 366.0, 160.0, 38.0, 16.0 ],
					"text" : "set $1"
				}

			}
, 			{
				"box" : 				{
					"annotation" : "[PT] Registo grave do teclado do computador. [ENG] Computer's keyboard lower register.",
					"bordercolor" : [ 0.501961, 0.501961, 0.501961, 1.0 ],
					"fontname" : "Arial",
					"fontsize" : 12.0,
					"format" : 4,
					"id" : "obj-93",
					"maxclass" : "number",
					"maximum" : 127,
					"minimum" : 0,
					"numinlets" : 1,
					"numoutlets" : 2,
					"outlettype" : [ "int", "bang" ],
					"parameter_enable" : 0,
					"patching_rect" : [ 366.0, 185.0, 42.0, 20.0 ],
					"presentation" : 1,
					"presentation_rect" : [ 239.5, 166.5, 40.0, 20.0 ]
				}

			}
, 			{
				"box" : 				{
					"bgcolor" : [ 0.927858, 0.904379, 0.56191, 1.0 ],
					"color" : [ 0.65098, 0.65098, 0.65098, 1.0 ],
					"fontface" : 3,
					"fontname" : "Arial",
					"fontsize" : 10.0,
					"id" : "obj-94",
					"linecount" : 2,
					"maxclass" : "newobj",
					"numinlets" : 1,
					"numoutlets" : 3,
					"outlettype" : [ "", "", "" ],
					"patching_rect" : [ 366.0, 205.5, 167.0, 29.0 ],
					"restore" : [ 36 ],
					"saved_object_attributes" : 					{
						"parameter_enable" : 0
					}
,
					"text" : "pattr @bindto keyboard::register @invisible 1",
					"varname" : "u790004134"
				}

			}
, 			{
				"box" : 				{
					"fontname" : "Geneva",
					"fontsize" : 9.0,
					"frgb" : 0.0,
					"id" : "obj-88",
					"linecount" : 3,
					"maxclass" : "comment",
					"numinlets" : 1,
					"numoutlets" : 0,
					"patching_rect" : [ 520.0, 344.0, 127.0, 40.0 ],
					"presentation" : 1,
					"presentation_linecount" : 3,
					"presentation_rect" : [ 202.0, 424.0, 126.0, 40.0 ],
					"text" : "developed by: Rui Penha\nupdated by: Tiago Ângelo\n@2013",
					"textcolor" : [ 0.098039, 0.098039, 0.098039, 1.0 ]
				}

			}
, 			{
				"box" : 				{
					"fontname" : "Arial",
					"fontsize" : 12.0,
					"frgb" : 0.0,
					"id" : "obj-79",
					"maxclass" : "comment",
					"numinlets" : 1,
					"numoutlets" : 0,
					"patching_rect" : [ 211.0, 126.0, 19.0, 20.0 ],
					"presentation" : 1,
					"presentation_rect" : [ 201.0, 126.0, 19.0, 20.0 ],
					"text" : "O",
					"textcolor" : [ 1.0, 1.0, 1.0, 1.0 ]
				}

			}
, 			{
				"box" : 				{
					"fontname" : "Arial",
					"fontsize" : 12.0,
					"frgb" : 0.0,
					"id" : "obj-81",
					"maxclass" : "comment",
					"numinlets" : 1,
					"numoutlets" : 0,
					"patching_rect" : [ 165.0, 126.0, 19.0, 20.0 ],
					"presentation" : 1,
					"presentation_rect" : [ 155.0, 126.0, 19.0, 20.0 ],
					"text" : "U",
					"textcolor" : [ 1.0, 1.0, 1.0, 1.0 ]
				}

			}
, 			{
				"box" : 				{
					"fontname" : "Arial",
					"fontsize" : 12.0,
					"frgb" : 0.0,
					"id" : "obj-82",
					"maxclass" : "comment",
					"numinlets" : 1,
					"numoutlets" : 0,
					"patching_rect" : [ 142.0, 126.0, 19.0, 20.0 ],
					"presentation" : 1,
					"presentation_rect" : [ 132.0, 126.0, 19.0, 20.0 ],
					"text" : "Y",
					"textcolor" : [ 1.0, 1.0, 1.0, 1.0 ]
				}

			}
, 			{
				"box" : 				{
					"fontname" : "Arial",
					"fontsize" : 12.0,
					"frgb" : 0.0,
					"id" : "obj-83",
					"maxclass" : "comment",
					"numinlets" : 1,
					"numoutlets" : 0,
					"patching_rect" : [ 119.0, 126.0, 19.0, 20.0 ],
					"presentation" : 1,
					"presentation_rect" : [ 109.0, 126.0, 19.0, 20.0 ],
					"text" : "T",
					"textcolor" : [ 1.0, 1.0, 1.0, 1.0 ]
				}

			}
, 			{
				"box" : 				{
					"fontname" : "Arial",
					"fontsize" : 12.0,
					"frgb" : 0.0,
					"id" : "obj-85",
					"maxclass" : "comment",
					"numinlets" : 1,
					"numoutlets" : 0,
					"patching_rect" : [ 73.0, 126.0, 19.0, 20.0 ],
					"presentation" : 1,
					"presentation_rect" : [ 63.0, 126.0, 19.0, 20.0 ],
					"text" : "E",
					"textcolor" : [ 1.0, 1.0, 1.0, 1.0 ]
				}

			}
, 			{
				"box" : 				{
					"fontname" : "Arial",
					"fontsize" : 12.0,
					"frgb" : 0.0,
					"id" : "obj-86",
					"maxclass" : "comment",
					"numinlets" : 1,
					"numoutlets" : 0,
					"patching_rect" : [ 48.0, 126.0, 22.0, 20.0 ],
					"presentation" : 1,
					"presentation_rect" : [ 38.0, 126.0, 22.0, 20.0 ],
					"text" : "W",
					"textcolor" : [ 1.0, 1.0, 1.0, 1.0 ]
				}

			}
, 			{
				"box" : 				{
					"fontname" : "Arial",
					"fontsize" : 12.0,
					"frgb" : 0.0,
					"id" : "obj-77",
					"maxclass" : "comment",
					"numinlets" : 1,
					"numoutlets" : 0,
					"patching_rect" : [ 222.0, 166.0, 18.0, 20.0 ],
					"presentation" : 1,
					"presentation_rect" : [ 212.0, 166.0, 18.0, 20.0 ],
					"text" : "L"
				}

			}
, 			{
				"box" : 				{
					"fontname" : "Arial",
					"fontsize" : 12.0,
					"frgb" : 0.0,
					"id" : "obj-76",
					"maxclass" : "comment",
					"numinlets" : 1,
					"numoutlets" : 0,
					"patching_rect" : [ 199.0, 166.0, 19.0, 20.0 ],
					"presentation" : 1,
					"presentation_rect" : [ 189.0, 166.0, 19.0, 20.0 ],
					"text" : "K"
				}

			}
, 			{
				"box" : 				{
					"fontname" : "Arial",
					"fontsize" : 12.0,
					"frgb" : 0.0,
					"id" : "obj-75",
					"maxclass" : "comment",
					"numinlets" : 1,
					"numoutlets" : 0,
					"patching_rect" : [ 176.0, 166.0, 18.0, 20.0 ],
					"presentation" : 1,
					"presentation_rect" : [ 166.0, 166.0, 18.0, 20.0 ],
					"text" : "J"
				}

			}
, 			{
				"box" : 				{
					"fontname" : "Arial",
					"fontsize" : 12.0,
					"frgb" : 0.0,
					"id" : "obj-74",
					"maxclass" : "comment",
					"numinlets" : 1,
					"numoutlets" : 0,
					"patching_rect" : [ 153.0, 166.0, 19.0, 20.0 ],
					"presentation" : 1,
					"presentation_rect" : [ 143.0, 166.0, 19.0, 20.0 ],
					"text" : "H"
				}

			}
, 			{
				"box" : 				{
					"fontname" : "Arial",
					"fontsize" : 12.0,
					"frgb" : 0.0,
					"id" : "obj-73",
					"maxclass" : "comment",
					"numinlets" : 1,
					"numoutlets" : 0,
					"patching_rect" : [ 130.0, 166.0, 19.0, 20.0 ],
					"presentation" : 1,
					"presentation_rect" : [ 120.0, 166.0, 19.0, 20.0 ],
					"text" : "G"
				}

			}
, 			{
				"box" : 				{
					"fontname" : "Arial",
					"fontsize" : 12.0,
					"frgb" : 0.0,
					"id" : "obj-72",
					"maxclass" : "comment",
					"numinlets" : 1,
					"numoutlets" : 0,
					"patching_rect" : [ 107.0, 166.0, 19.0, 20.0 ],
					"presentation" : 1,
					"presentation_rect" : [ 97.0, 166.0, 19.0, 20.0 ],
					"text" : "F"
				}

			}
, 			{
				"box" : 				{
					"fontname" : "Arial",
					"fontsize" : 12.0,
					"frgb" : 0.0,
					"id" : "obj-71",
					"maxclass" : "comment",
					"numinlets" : 1,
					"numoutlets" : 0,
					"patching_rect" : [ 84.0, 166.0, 19.0, 20.0 ],
					"presentation" : 1,
					"presentation_rect" : [ 74.0, 166.0, 19.0, 20.0 ],
					"text" : "D"
				}

			}
, 			{
				"box" : 				{
					"fontname" : "Arial",
					"fontsize" : 12.0,
					"frgb" : 0.0,
					"id" : "obj-70",
					"maxclass" : "comment",
					"numinlets" : 1,
					"numoutlets" : 0,
					"patching_rect" : [ 61.0, 166.0, 19.0, 20.0 ],
					"presentation" : 1,
					"presentation_rect" : [ 51.0, 166.0, 19.0, 20.0 ],
					"text" : "S"
				}

			}
, 			{
				"box" : 				{
					"fontname" : "Arial",
					"fontsize" : 12.0,
					"frgb" : 0.0,
					"id" : "obj-68",
					"maxclass" : "comment",
					"numinlets" : 1,
					"numoutlets" : 0,
					"patching_rect" : [ 38.0, 166.0, 19.0, 20.0 ],
					"presentation" : 1,
					"presentation_rect" : [ 28.0, 166.0, 19.0, 20.0 ],
					"text" : "A"
				}

			}
, 			{
				"box" : 				{
					"id" : "obj-66",
					"ignoreclick" : 1,
					"maxclass" : "kslider",
					"mode" : 1,
					"numinlets" : 2,
					"numoutlets" : 2,
					"outlettype" : [ "int", "int" ],
					"parameter_enable" : 0,
					"patching_rect" : [ 35.0, 93.0, 207.0, 95.0 ],
					"presentation" : 1,
					"presentation_rect" : [ 25.0, 93.0, 207.0, 95.0 ],
					"range" : 16
				}

			}
, 			{
				"box" : 				{
					"fontname" : "Arial",
					"fontsize" : 10.0,
					"frgb" : 0.0,
					"id" : "obj-65",
					"maxclass" : "comment",
					"numinlets" : 1,
					"numoutlets" : 0,
					"patching_rect" : [ 582.5, 170.5, 85.0, 18.0 ],
					"presentation" : 1,
					"presentation_rect" : [ 239.5, 127.0, 84.0, 18.0 ],
					"text" : "keys V: +1, C: -1"
				}

			}
, 			{
				"box" : 				{
					"annotation" : "[PT] Actualizar lista de dispositivos MIDI. [ENG] Refresh MIDI device list. ",
					"bgcolor" : [ 0.913725, 0.913725, 0.913725, 0.0 ],
					"fgcolor" : [ 0.901961, 0.901961, 0.901961, 1.0 ],
					"hint" : "",
					"id" : "obj-63",
					"maxclass" : "button",
					"numinlets" : 1,
					"numoutlets" : 1,
					"outlettype" : [ "bang" ],
					"outlinecolor" : [ 0.713726, 0.713726, 0.713726, 0.0 ],
					"patching_rect" : [ 80.5, 248.0, 20.0, 20.0 ],
					"presentation" : 1,
					"presentation_rect" : [ 265.0, 48.0, 22.0, 22.0 ]
				}

			}
, 			{
				"box" : 				{
					"fontname" : "Arial",
					"fontsize" : 10.0,
					"id" : "obj-61",
					"maxclass" : "newobj",
					"numinlets" : 1,
					"numoutlets" : 1,
					"outlettype" : [ "" ],
					"patching_rect" : [ 80.5, 276.0, 102.0, 18.0 ],
					"text" : "loadmess controllers"
				}

			}
, 			{
				"box" : 				{
					"fontname" : "Arial",
					"fontsize" : 10.0,
					"id" : "obj-52",
					"maxclass" : "message",
					"numinlets" : 2,
					"numoutlets" : 1,
					"outlettype" : [ "" ],
					"patching_rect" : [ 542.5, 145.5, 38.0, 16.0 ],
					"text" : "set $1"
				}

			}
, 			{
				"box" : 				{
					"annotation" : "[PT] Definir intensidade(ou amplitude) das notas MIDI geradas pelo teclado do computador. [ENG] Set velocity values for the computer's keyboard input.",
					"bordercolor" : [ 0.501961, 0.501961, 0.501961, 1.0 ],
					"fontname" : "Arial",
					"fontsize" : 12.0,
					"hint" : "",
					"id" : "obj-50",
					"maxclass" : "number",
					"maximum" : 127,
					"minimum" : 0,
					"numinlets" : 1,
					"numoutlets" : 2,
					"outlettype" : [ "int", "bang" ],
					"parameter_enable" : 0,
					"patching_rect" : [ 542.5, 170.5, 40.0, 20.0 ],
					"presentation" : 1,
					"presentation_rect" : [ 239.5, 107.0, 40.0, 20.0 ]
				}

			}
, 			{
				"box" : 				{
					"bgcolor" : [ 0.927858, 0.904379, 0.56191, 1.0 ],
					"color" : [ 0.65098, 0.65098, 0.65098, 1.0 ],
					"fontface" : 3,
					"fontname" : "Arial",
					"fontsize" : 10.0,
					"id" : "obj-48",
					"linecount" : 2,
					"maxclass" : "newobj",
					"numinlets" : 1,
					"numoutlets" : 3,
					"outlettype" : [ "", "", "" ],
					"patching_rect" : [ 542.5, 205.5, 168.0, 29.0 ],
					"restore" : [ 95 ],
					"saved_object_attributes" : 					{
						"parameter_enable" : 0
					}
,
					"text" : "pattr @bindto keyboard::velocity @invisible 1",
					"varname" : "u405004139"
				}

			}
, 			{
				"box" : 				{
					"annotation" : "[PT] Volume de saída. [ENG] Output volume.",
					"id" : "obj-40",
					"maxclass" : "live.gain~",
					"numinlets" : 2,
					"numoutlets" : 5,
					"orientation" : 1,
					"outlettype" : [ "signal", "signal", "", "float", "list" ],
					"parameter_enable" : 1,
					"patching_rect" : [ 366.0, 500.0, 136.0, 48.0 ],
					"presentation" : 1,
					"presentation_rect" : [ 63.0, 362.25, 217.0, 48.0 ],
					"saved_attribute_attributes" : 					{
						"valueof" : 						{
							"parameter_unitstyle" : 4,
							"parameter_mmax" : 6.0,
							"parameter_mmin" : -70.0,
							"parameter_initial" : [ 0 ],
							"parameter_type" : 0,
							"parameter_shortname" : "volume",
							"parameter_longname" : "volume"
						}

					}
,
					"varname" : "live.gain~"
				}

			}
, 			{
				"box" : 				{
					"annotation" : "[PT] Libertar notas em execução. [ENG] Flush held notes.",
					"bgcolor" : [ 1.0, 1.0, 1.0, 1.0 ],
					"bgoncolor" : [ 0.929412, 0.905882, 0.560784, 1.0 ],
					"bgovercolor" : [ 0.937255, 0.611765, 0.258824, 1.0 ],
					"bordercolor" : [ 0.937255, 0.611765, 0.258824, 1.0 ],
					"borderoncolor" : [ 0.501961, 0.501961, 0.501961, 1.0 ],
					"fontname" : "Arial",
					"fontsize" : 10.0,
					"hint" : "",
					"id" : "obj-39",
					"maxclass" : "textbutton",
					"numinlets" : 1,
					"numoutlets" : 3,
					"outlettype" : [ "", "", "int" ],
					"parameter_enable" : 0,
					"patching_rect" : [ 15.0, 10.0, 50.0, 20.0 ],
					"presentation" : 1,
					"presentation_rect" : [ 291.349396, 48.0, 36.650589, 22.0 ],
					"rounded" : 6.0,
					"text" : "panic! ",
					"varname" : "panic"
				}

			}
, 			{
				"box" : 				{
					"fontname" : "Arial",
					"fontsize" : 10.0,
					"id" : "obj-36",
					"maxclass" : "newobj",
					"numinlets" : 2,
					"numoutlets" : 1,
					"outlettype" : [ "int" ],
					"patching_rect" : [ 251.0, 135.0, 32.5, 18.0 ],
					"text" : "!- 1"
				}

			}
, 			{
				"box" : 				{
					"bgcolor" : [ 0.65098, 0.65098, 0.65098, 1.0 ],
					"color" : [ 0.929412, 0.905882, 0.560784, 1.0 ],
					"fontname" : "Arial",
					"fontsize" : 10.0,
					"id" : "obj-34",
					"maxclass" : "newobj",
					"numinlets" : 1,
					"numoutlets" : 1,
					"outlettype" : [ "" ],
					"patcher" : 					{
						"fileversion" : 1,
						"appversion" : 						{
							"major" : 6,
							"minor" : 1,
							"revision" : 2,
							"architecture" : "x86"
						}
,
						"rect" : [ 25.0, 69.0, 874.0, 691.0 ],
						"bglocked" : 0,
						"openinpresentation" : 0,
						"default_fontsize" : 10.0,
						"default_fontface" : 0,
						"default_fontname" : "Arial",
						"gridonopen" : 0,
						"gridsize" : [ 5.0, 5.0 ],
						"gridsnaponopen" : 0,
						"statusbarvisible" : 2,
						"toolbarvisible" : 1,
						"boxanimatetime" : 200,
						"imprint" : 0,
						"enablehscroll" : 1,
						"enablevscroll" : 1,
						"devicewidth" : 0.0,
						"description" : "",
						"digest" : "",
						"tags" : "",
						"boxes" : [ 							{
								"box" : 								{
									"fontname" : "Arial",
									"fontsize" : 10.0,
									"id" : "obj-56",
									"maxclass" : "newobj",
									"numinlets" : 4,
									"numoutlets" : 2,
									"outlettype" : [ "bang", "bang" ],
									"patcher" : 									{
										"fileversion" : 1,
										"appversion" : 										{
											"major" : 6,
											"minor" : 1,
											"revision" : 2,
											"architecture" : "x86"
										}
,
										"rect" : [ 25.0, 69.0, 640.0, 480.0 ],
										"bglocked" : 0,
										"openinpresentation" : 0,
										"default_fontsize" : 10.0,
										"default_fontface" : 0,
										"default_fontname" : "Arial",
										"gridonopen" : 0,
										"gridsize" : [ 5.0, 5.0 ],
										"gridsnaponopen" : 0,
										"statusbarvisible" : 2,
										"toolbarvisible" : 1,
										"boxanimatetime" : 200,
										"imprint" : 0,
										"enablehscroll" : 1,
										"enablevscroll" : 1,
										"devicewidth" : 0.0,
										"description" : "",
										"digest" : "",
										"tags" : "",
										"boxes" : [ 											{
												"box" : 												{
													"comment" : "",
													"id" : "obj-6",
													"maxclass" : "inlet",
													"numinlets" : 0,
													"numoutlets" : 1,
													"outlettype" : [ "bang" ],
													"patching_rect" : [ 160.0, 40.0, 25.0, 25.0 ]
												}

											}
, 											{
												"box" : 												{
													"comment" : "",
													"id" : "obj-7",
													"maxclass" : "inlet",
													"numinlets" : 0,
													"numoutlets" : 1,
													"outlettype" : [ "bang" ],
													"patching_rect" : [ 216.0, 40.0, 25.0, 25.0 ]
												}

											}
, 											{
												"box" : 												{
													"fontname" : "Arial",
													"fontsize" : 10.0,
													"id" : "obj-4",
													"maxclass" : "message",
													"numinlets" : 2,
													"numoutlets" : 1,
													"outlettype" : [ "" ],
													"patching_rect" : [ 106.0, 85.0, 32.5, 16.0 ],
													"text" : "1"
												}

											}
, 											{
												"box" : 												{
													"fontname" : "Arial",
													"fontsize" : 10.0,
													"id" : "obj-5",
													"maxclass" : "message",
													"numinlets" : 2,
													"numoutlets" : 1,
													"outlettype" : [ "" ],
													"patching_rect" : [ 50.0, 85.0, 32.5, 16.0 ],
													"text" : "1"
												}

											}
, 											{
												"box" : 												{
													"fontname" : "Arial",
													"fontsize" : 10.0,
													"id" : "obj-3",
													"maxclass" : "message",
													"numinlets" : 2,
													"numoutlets" : 1,
													"outlettype" : [ "" ],
													"patching_rect" : [ 216.0, 85.0, 32.5, 16.0 ],
													"text" : "0"
												}

											}
, 											{
												"box" : 												{
													"fontname" : "Arial",
													"fontsize" : 10.0,
													"id" : "obj-2",
													"maxclass" : "message",
													"numinlets" : 2,
													"numoutlets" : 1,
													"outlettype" : [ "" ],
													"patching_rect" : [ 160.0, 85.0, 32.5, 16.0 ],
													"text" : "0"
												}

											}
, 											{
												"box" : 												{
													"fontname" : "Arial",
													"fontsize" : 10.0,
													"id" : "obj-34",
													"maxclass" : "newobj",
													"numinlets" : 2,
													"numoutlets" : 1,
													"outlettype" : [ "bang" ],
													"patching_rect" : [ 134.75, 160.0, 56.0, 18.0 ],
													"text" : "metro 100"
												}

											}
, 											{
												"box" : 												{
													"fontname" : "Arial",
													"fontsize" : 10.0,
													"id" : "obj-30",
													"maxclass" : "newobj",
													"numinlets" : 2,
													"numoutlets" : 1,
													"outlettype" : [ "bang" ],
													"patching_rect" : [ 50.0, 160.0, 56.0, 18.0 ],
													"text" : "metro 100"
												}

											}
, 											{
												"box" : 												{
													"comment" : "",
													"id" : "obj-44",
													"maxclass" : "inlet",
													"numinlets" : 0,
													"numoutlets" : 1,
													"outlettype" : [ "bang" ],
													"patching_rect" : [ 50.0, 40.0, 25.0, 25.0 ]
												}

											}
, 											{
												"box" : 												{
													"comment" : "",
													"id" : "obj-50",
													"maxclass" : "inlet",
													"numinlets" : 0,
													"numoutlets" : 1,
													"outlettype" : [ "bang" ],
													"patching_rect" : [ 106.0, 40.0, 25.0, 25.0 ]
												}

											}
, 											{
												"box" : 												{
													"comment" : "",
													"id" : "obj-52",
													"maxclass" : "outlet",
													"numinlets" : 1,
													"numoutlets" : 0,
													"patching_rect" : [ 50.0, 238.0, 25.0, 25.0 ]
												}

											}
, 											{
												"box" : 												{
													"comment" : "",
													"id" : "obj-53",
													"maxclass" : "outlet",
													"numinlets" : 1,
													"numoutlets" : 0,
													"patching_rect" : [ 134.75, 238.0, 25.0, 25.0 ]
												}

											}
 ],
										"lines" : [ 											{
												"patchline" : 												{
													"destination" : [ "obj-30", 0 ],
													"disabled" : 0,
													"hidden" : 0,
													"source" : [ "obj-2", 0 ]
												}

											}
, 											{
												"patchline" : 												{
													"destination" : [ "obj-34", 0 ],
													"disabled" : 0,
													"hidden" : 0,
													"source" : [ "obj-3", 0 ]
												}

											}
, 											{
												"patchline" : 												{
													"destination" : [ "obj-52", 0 ],
													"disabled" : 0,
													"hidden" : 0,
													"source" : [ "obj-30", 0 ]
												}

											}
, 											{
												"patchline" : 												{
													"destination" : [ "obj-53", 0 ],
													"disabled" : 0,
													"hidden" : 0,
													"source" : [ "obj-34", 0 ]
												}

											}
, 											{
												"patchline" : 												{
													"destination" : [ "obj-34", 0 ],
													"disabled" : 0,
													"hidden" : 0,
													"source" : [ "obj-4", 0 ]
												}

											}
, 											{
												"patchline" : 												{
													"destination" : [ "obj-5", 0 ],
													"disabled" : 0,
													"hidden" : 0,
													"source" : [ "obj-44", 0 ]
												}

											}
, 											{
												"patchline" : 												{
													"destination" : [ "obj-30", 0 ],
													"disabled" : 0,
													"hidden" : 0,
													"source" : [ "obj-5", 0 ]
												}

											}
, 											{
												"patchline" : 												{
													"destination" : [ "obj-4", 0 ],
													"disabled" : 0,
													"hidden" : 0,
													"source" : [ "obj-50", 0 ]
												}

											}
, 											{
												"patchline" : 												{
													"destination" : [ "obj-2", 0 ],
													"disabled" : 0,
													"hidden" : 0,
													"source" : [ "obj-6", 0 ]
												}

											}
, 											{
												"patchline" : 												{
													"destination" : [ "obj-3", 0 ],
													"disabled" : 0,
													"hidden" : 0,
													"source" : [ "obj-7", 0 ]
												}

											}
 ]
									}
,
									"patching_rect" : [ 27.5, 265.0, 58.0, 18.0 ],
									"saved_object_attributes" : 									{
										"default_fontface" : 0,
										"default_fontname" : "Arial",
										"default_fontsize" : 10.0,
										"description" : "",
										"digest" : "",
										"fontface" : 0,
										"fontname" : "Arial",
										"fontsize" : 10.0,
										"globalpatchername" : "",
										"tags" : ""
									}
,
									"text" : "p metro"
								}

							}
, 							{
								"box" : 								{
									"fontname" : "Arial",
									"fontsize" : 10.0,
									"id" : "obj-41",
									"maxclass" : "newobj",
									"numinlets" : 3,
									"numoutlets" : 1,
									"outlettype" : [ "" ],
									"patching_rect" : [ 27.5, 405.0, 53.0, 18.0 ],
									"text" : "clip 0 127"
								}

							}
, 							{
								"box" : 								{
									"bgcolor" : [ 1.0, 1.0, 0.4, 1.0 ],
									"color" : [ 0.65098, 0.65098, 0.65098, 1.0 ],
									"fontface" : 1,
									"fontname" : "Arial",
									"fontsize" : 10.0,
									"id" : "obj-4",
									"linecount" : 3,
									"maxclass" : "newobj",
									"numinlets" : 1,
									"numoutlets" : 3,
									"outlettype" : [ "", "", "" ],
									"patching_rect" : [ 270.0, 323.0, 80.0, 40.0 ],
									"saved_object_attributes" : 									{
										"initial" : [ 100 ],
										"parameter_enable" : 0
									}
,
									"text" : "pattr velocity @initial 100 @type char",
									"varname" : "velocity"
								}

							}
, 							{
								"box" : 								{
									"fontname" : "Arial",
									"fontsize" : 10.0,
									"id" : "obj-3",
									"maxclass" : "newobj",
									"numinlets" : 2,
									"numoutlets" : 1,
									"outlettype" : [ "" ],
									"patching_rect" : [ 283.0, 95.0, 32.5, 18.0 ],
									"text" : "gate"
								}

							}
, 							{
								"box" : 								{
									"fontname" : "Arial",
									"fontsize" : 10.0,
									"id" : "obj-2",
									"maxclass" : "newobj",
									"numinlets" : 2,
									"numoutlets" : 1,
									"outlettype" : [ "" ],
									"patching_rect" : [ 159.5, 95.0, 32.5, 18.0 ],
									"text" : "gate"
								}

							}
, 							{
								"box" : 								{
									"comment" : "",
									"id" : "obj-1",
									"maxclass" : "inlet",
									"numinlets" : 0,
									"numoutlets" : 1,
									"outlettype" : [ "int" ],
									"patching_rect" : [ 50.0, 35.0, 25.0, 25.0 ]
								}

							}
, 							{
								"box" : 								{
									"fontname" : "Arial",
									"fontsize" : 10.0,
									"id" : "obj-37",
									"maxclass" : "newobj",
									"numinlets" : 1,
									"numoutlets" : 2,
									"outlettype" : [ "int", "bang" ],
									"patching_rect" : [ 66.5, 293.0, 32.5, 18.0 ],
									"text" : "t 1 b"
								}

							}
, 							{
								"box" : 								{
									"fontname" : "Arial",
									"fontsize" : 10.0,
									"id" : "obj-43",
									"maxclass" : "newobj",
									"numinlets" : 1,
									"numoutlets" : 2,
									"outlettype" : [ "int", "bang" ],
									"patching_rect" : [ 27.5, 293.0, 33.0, 18.0 ],
									"text" : "t -1 b"
								}

							}
, 							{
								"box" : 								{
									"fontname" : "Arial",
									"fontsize" : 10.0,
									"id" : "obj-45",
									"maxclass" : "newobj",
									"numinlets" : 2,
									"numoutlets" : 1,
									"outlettype" : [ "int" ],
									"patching_rect" : [ 27.5, 373.0, 33.0, 18.0 ],
									"text" : "+"
								}

							}
, 							{
								"box" : 								{
									"bgcolor" : [ 0.65098, 0.65098, 0.65098, 0.15 ],
									"color" : [ 0.65098, 0.65098, 0.65098, 1.0 ],
									"fontname" : "Arial",
									"fontsize" : 10.0,
									"id" : "obj-46",
									"linecount" : 3,
									"maxclass" : "newobj",
									"numinlets" : 1,
									"numoutlets" : 3,
									"outlettype" : [ "", "", "" ],
									"patching_rect" : [ 79.5, 323.0, 125.0, 40.0 ],
									"restore" : [ 95 ],
									"saved_object_attributes" : 									{
										"parameter_enable" : 0
									}
,
									"text" : "pattr @bindto velocity @invisible 1 @autorestore 0 @thru 0",
									"varname" : "u410004155"
								}

							}
, 							{
								"box" : 								{
									"fontname" : "Arial",
									"fontsize" : 10.0,
									"id" : "obj-36",
									"maxclass" : "newobj",
									"numinlets" : 1,
									"numoutlets" : 2,
									"outlettype" : [ "int", "bang" ],
									"patching_rect" : [ 456.5, 315.0, 36.0, 18.0 ],
									"text" : "t 12 b"
								}

							}
, 							{
								"box" : 								{
									"fontname" : "Arial",
									"fontsize" : 10.0,
									"id" : "obj-31",
									"maxclass" : "newobj",
									"numinlets" : 1,
									"numoutlets" : 2,
									"outlettype" : [ "int", "bang" ],
									"patching_rect" : [ 417.5, 315.0, 39.0, 18.0 ],
									"text" : "t -12 b"
								}

							}
, 							{
								"box" : 								{
									"fontname" : "Arial",
									"fontsize" : 10.0,
									"id" : "obj-28",
									"maxclass" : "newobj",
									"numinlets" : 2,
									"numoutlets" : 1,
									"outlettype" : [ "int" ],
									"patching_rect" : [ 417.5, 385.0, 32.5, 18.0 ],
									"text" : "+"
								}

							}
, 							{
								"box" : 								{
									"bgcolor" : [ 0.65098, 0.65098, 0.65098, 0.15 ],
									"color" : [ 0.65098, 0.65098, 0.65098, 1.0 ],
									"fontname" : "Arial",
									"fontsize" : 10.0,
									"id" : "obj-27",
									"maxclass" : "newobj",
									"numinlets" : 1,
									"numoutlets" : 3,
									"outlettype" : [ "", "", "" ],
									"patching_rect" : [ 473.5, 345.0, 274.0, 18.0 ],
									"restore" : [ 36 ],
									"saved_object_attributes" : 									{
										"parameter_enable" : 0
									}
,
									"text" : "pattr @bindto register @invisible 1 @autorestore 0 @thru 0",
									"varname" : "u243004157"
								}

							}
, 							{
								"box" : 								{
									"bgcolor" : [ 1.0, 1.0, 0.4, 1.0 ],
									"color" : [ 0.65098, 0.65098, 0.65098, 1.0 ],
									"fontface" : 1,
									"fontname" : "Arial",
									"fontsize" : 10.0,
									"id" : "obj-25",
									"maxclass" : "newobj",
									"numinlets" : 1,
									"numoutlets" : 3,
									"outlettype" : [ "", "", "" ],
									"patching_rect" : [ 417.5, 420.0, 326.0, 18.0 ],
									"saved_object_attributes" : 									{
										"initial" : [ 48 ],
										"parameter_enable" : 0
									}
,
									"text" : "pattr register @default_priority -6 @initial 0 @type char @initial 48",
									"varname" : "register"
								}

							}
, 							{
								"box" : 								{
									"fontname" : "Arial",
									"fontsize" : 10.0,
									"id" : "obj-12",
									"maxclass" : "newobj",
									"numinlets" : 2,
									"numoutlets" : 1,
									"outlettype" : [ "int" ],
									"patching_rect" : [ 352.5, 470.0, 32.5, 18.0 ],
									"text" : "+ 0"
								}

							}
, 							{
								"box" : 								{
									"fontname" : "Arial",
									"fontsize" : 10.0,
									"id" : "obj-11",
									"maxclass" : "newobj",
									"numinlets" : 2,
									"numoutlets" : 1,
									"outlettype" : [ "int" ],
									"patching_rect" : [ 230.0, 470.0, 32.5, 18.0 ],
									"text" : "+ 0"
								}

							}
, 							{
								"box" : 								{
									"fontname" : "Arial",
									"fontsize" : 10.0,
									"id" : "obj-70",
									"maxclass" : "newobj",
									"numinlets" : 5,
									"numoutlets" : 5,
									"outlettype" : [ "bang", "bang", "bang", "bang", "" ],
									"patching_rect" : [ 282.5, 205.0, 89.0, 18.0 ],
									"text" : "sel down up v- v+"
								}

							}
, 							{
								"box" : 								{
									"fontname" : "Arial",
									"fontsize" : 10.0,
									"id" : "obj-69",
									"maxclass" : "message",
									"numinlets" : 2,
									"numoutlets" : 1,
									"outlettype" : [ "" ],
									"patching_rect" : [ 282.5, 155.0, 56.0, 16.0 ],
									"text" : "symbol $1"
								}

							}
, 							{
								"box" : 								{
									"coll_data" : 									{
										"count" : 19,
										"data" : [ 											{
												"key" : "a",
												"value" : [ 0 ]
											}
, 											{
												"key" : "w",
												"value" : [ 1 ]
											}
, 											{
												"key" : "s",
												"value" : [ 2 ]
											}
, 											{
												"key" : "e",
												"value" : [ 3 ]
											}
, 											{
												"key" : "d",
												"value" : [ 4 ]
											}
, 											{
												"key" : "f",
												"value" : [ 5 ]
											}
, 											{
												"key" : "t",
												"value" : [ 6 ]
											}
, 											{
												"key" : "g",
												"value" : [ 7 ]
											}
, 											{
												"key" : "y",
												"value" : [ 8 ]
											}
, 											{
												"key" : "h",
												"value" : [ 9 ]
											}
, 											{
												"key" : "u",
												"value" : [ 10 ]
											}
, 											{
												"key" : "j",
												"value" : [ 11 ]
											}
, 											{
												"key" : "k",
												"value" : [ 12 ]
											}
, 											{
												"key" : "o",
												"value" : [ 13 ]
											}
, 											{
												"key" : "l",
												"value" : [ 14 ]
											}
, 											{
												"key" : "z",
												"value" : [ "down" ]
											}
, 											{
												"key" : "x",
												"value" : [ "up" ]
											}
, 											{
												"key" : "c",
												"value" : [ "v-" ]
											}
, 											{
												"key" : "v",
												"value" : [ "v+" ]
											}
 ]
									}
,
									"fontname" : "Arial",
									"fontsize" : 10.0,
									"id" : "obj-67",
									"maxclass" : "newobj",
									"numinlets" : 1,
									"numoutlets" : 4,
									"outlettype" : [ "", "", "", "" ],
									"patching_rect" : [ 282.5, 180.0, 120.0, 18.0 ],
									"saved_object_attributes" : 									{
										"embed" : 1
									}
,
									"text" : "coll key2midi @embed 1"
								}

							}
, 							{
								"box" : 								{
									"fontname" : "Arial",
									"fontsize" : 10.0,
									"id" : "obj-62",
									"maxclass" : "newobj",
									"numinlets" : 2,
									"numoutlets" : 1,
									"outlettype" : [ "" ],
									"patching_rect" : [ 352.5, 509.0, 48.0, 18.0 ],
									"text" : "pack 0 0"
								}

							}
, 							{
								"box" : 								{
									"fontname" : "Arial",
									"fontsize" : 10.0,
									"id" : "obj-59",
									"maxclass" : "newobj",
									"numinlets" : 2,
									"numoutlets" : 1,
									"outlettype" : [ "" ],
									"patching_rect" : [ 230.0, 509.0, 59.0, 18.0 ],
									"text" : "pack 0 100"
								}

							}
, 							{
								"box" : 								{
									"fontname" : "Arial",
									"fontsize" : 10.0,
									"id" : "obj-57",
									"maxclass" : "newobj",
									"numinlets" : 3,
									"numoutlets" : 1,
									"outlettype" : [ "int" ],
									"patching_rect" : [ 282.5, 130.0, 46.0, 18.0 ],
									"text" : "itoa"
								}

							}
, 							{
								"box" : 								{
									"fontname" : "Arial",
									"fontsize" : 10.0,
									"id" : "obj-55",
									"maxclass" : "newobj",
									"numinlets" : 5,
									"numoutlets" : 5,
									"outlettype" : [ "bang", "bang", "bang", "bang", "" ],
									"patching_rect" : [ 160.0, 205.0, 89.0, 18.0 ],
									"text" : "sel down up v- v+"
								}

							}
, 							{
								"box" : 								{
									"fontname" : "Arial",
									"fontsize" : 10.0,
									"id" : "obj-54",
									"maxclass" : "message",
									"numinlets" : 2,
									"numoutlets" : 1,
									"outlettype" : [ "" ],
									"patching_rect" : [ 160.0, 155.0, 56.0, 16.0 ],
									"text" : "symbol $1"
								}

							}
, 							{
								"box" : 								{
									"coll_data" : 									{
										"count" : 19,
										"data" : [ 											{
												"key" : "a",
												"value" : [ 0 ]
											}
, 											{
												"key" : "w",
												"value" : [ 1 ]
											}
, 											{
												"key" : "s",
												"value" : [ 2 ]
											}
, 											{
												"key" : "e",
												"value" : [ 3 ]
											}
, 											{
												"key" : "d",
												"value" : [ 4 ]
											}
, 											{
												"key" : "f",
												"value" : [ 5 ]
											}
, 											{
												"key" : "t",
												"value" : [ 6 ]
											}
, 											{
												"key" : "g",
												"value" : [ 7 ]
											}
, 											{
												"key" : "y",
												"value" : [ 8 ]
											}
, 											{
												"key" : "h",
												"value" : [ 9 ]
											}
, 											{
												"key" : "u",
												"value" : [ 10 ]
											}
, 											{
												"key" : "j",
												"value" : [ 11 ]
											}
, 											{
												"key" : "k",
												"value" : [ 12 ]
											}
, 											{
												"key" : "o",
												"value" : [ 13 ]
											}
, 											{
												"key" : "l",
												"value" : [ 14 ]
											}
, 											{
												"key" : "z",
												"value" : [ "down" ]
											}
, 											{
												"key" : "x",
												"value" : [ "up" ]
											}
, 											{
												"key" : "c",
												"value" : [ "v-" ]
											}
, 											{
												"key" : "v",
												"value" : [ "v+" ]
											}
 ]
									}
,
									"fontname" : "Arial",
									"fontsize" : 10.0,
									"id" : "obj-49",
									"maxclass" : "newobj",
									"numinlets" : 1,
									"numoutlets" : 4,
									"outlettype" : [ "", "", "", "" ],
									"patching_rect" : [ 160.0, 180.0, 120.0, 18.0 ],
									"saved_object_attributes" : 									{
										"embed" : 1
									}
,
									"text" : "coll key2midi @embed 1"
								}

							}
, 							{
								"box" : 								{
									"fontname" : "Arial",
									"fontsize" : 10.0,
									"id" : "obj-38",
									"maxclass" : "newobj",
									"numinlets" : 3,
									"numoutlets" : 1,
									"outlettype" : [ "int" ],
									"patching_rect" : [ 160.0, 130.0, 46.0, 18.0 ],
									"text" : "itoa"
								}

							}
, 							{
								"box" : 								{
									"fontname" : "Arial",
									"fontsize" : 10.0,
									"id" : "obj-85",
									"maxclass" : "newobj",
									"numinlets" : 0,
									"numoutlets" : 4,
									"outlettype" : [ "int", "int", "int", "int" ],
									"patching_rect" : [ 296.5, 40.0, 88.0, 18.0 ],
									"text" : "keyup"
								}

							}
, 							{
								"box" : 								{
									"fontname" : "Arial",
									"fontsize" : 10.0,
									"id" : "obj-26",
									"maxclass" : "newobj",
									"numinlets" : 0,
									"numoutlets" : 4,
									"outlettype" : [ "int", "int", "int", "int" ],
									"patching_rect" : [ 173.0, 40.0, 88.0, 18.0 ],
									"text" : "key"
								}

							}
, 							{
								"box" : 								{
									"comment" : "",
									"id" : "obj-32",
									"maxclass" : "outlet",
									"numinlets" : 1,
									"numoutlets" : 0,
									"patching_rect" : [ 352.5, 633.0, 25.0, 25.0 ]
								}

							}
 ],
						"lines" : [ 							{
								"patchline" : 								{
									"destination" : [ "obj-2", 0 ],
									"disabled" : 0,
									"hidden" : 0,
									"midpoints" : [ 59.5, 83.5, 169.0, 83.5 ],
									"source" : [ "obj-1", 0 ]
								}

							}
, 							{
								"patchline" : 								{
									"destination" : [ "obj-3", 0 ],
									"disabled" : 0,
									"hidden" : 0,
									"midpoints" : [ 59.5, 76.5, 292.5, 76.5 ],
									"source" : [ "obj-1", 0 ]
								}

							}
, 							{
								"patchline" : 								{
									"destination" : [ "obj-59", 0 ],
									"disabled" : 0,
									"hidden" : 0,
									"source" : [ "obj-11", 0 ]
								}

							}
, 							{
								"patchline" : 								{
									"destination" : [ "obj-62", 0 ],
									"disabled" : 0,
									"hidden" : 0,
									"source" : [ "obj-12", 0 ]
								}

							}
, 							{
								"patchline" : 								{
									"destination" : [ "obj-38", 0 ],
									"disabled" : 0,
									"hidden" : 0,
									"source" : [ "obj-2", 0 ]
								}

							}
, 							{
								"patchline" : 								{
									"destination" : [ "obj-11", 1 ],
									"disabled" : 0,
									"hidden" : 0,
									"midpoints" : [ 427.0, 449.5, 253.0, 449.5 ],
									"source" : [ "obj-25", 0 ]
								}

							}
, 							{
								"patchline" : 								{
									"destination" : [ "obj-12", 1 ],
									"disabled" : 0,
									"hidden" : 0,
									"midpoints" : [ 427.0, 458.5, 375.5, 458.5 ],
									"source" : [ "obj-25", 0 ]
								}

							}
, 							{
								"patchline" : 								{
									"destination" : [ "obj-2", 1 ],
									"disabled" : 0,
									"hidden" : 0,
									"source" : [ "obj-26", 0 ]
								}

							}
, 							{
								"patchline" : 								{
									"destination" : [ "obj-28", 1 ],
									"disabled" : 0,
									"hidden" : 0,
									"midpoints" : [ 483.0, 373.5, 440.5, 373.5 ],
									"source" : [ "obj-27", 0 ]
								}

							}
, 							{
								"patchline" : 								{
									"destination" : [ "obj-25", 0 ],
									"disabled" : 0,
									"hidden" : 0,
									"source" : [ "obj-28", 0 ]
								}

							}
, 							{
								"patchline" : 								{
									"destination" : [ "obj-57", 0 ],
									"disabled" : 0,
									"hidden" : 0,
									"source" : [ "obj-3", 0 ]
								}

							}
, 							{
								"patchline" : 								{
									"destination" : [ "obj-27", 0 ],
									"disabled" : 0,
									"hidden" : 0,
									"midpoints" : [ 447.0, 338.5, 483.0, 338.5 ],
									"source" : [ "obj-31", 1 ]
								}

							}
, 							{
								"patchline" : 								{
									"destination" : [ "obj-28", 0 ],
									"disabled" : 0,
									"hidden" : 0,
									"source" : [ "obj-31", 0 ]
								}

							}
, 							{
								"patchline" : 								{
									"destination" : [ "obj-27", 0 ],
									"disabled" : 0,
									"hidden" : 0,
									"source" : [ "obj-36", 1 ]
								}

							}
, 							{
								"patchline" : 								{
									"destination" : [ "obj-28", 0 ],
									"disabled" : 0,
									"hidden" : 0,
									"midpoints" : [ 466.0, 358.5, 427.0, 358.5 ],
									"source" : [ "obj-36", 0 ]
								}

							}
, 							{
								"patchline" : 								{
									"destination" : [ "obj-45", 0 ],
									"disabled" : 0,
									"hidden" : 0,
									"midpoints" : [ 76.0, 367.5, 37.0, 367.5 ],
									"source" : [ "obj-37", 0 ]
								}

							}
, 							{
								"patchline" : 								{
									"destination" : [ "obj-46", 0 ],
									"disabled" : 0,
									"hidden" : 0,
									"source" : [ "obj-37", 1 ]
								}

							}
, 							{
								"patchline" : 								{
									"destination" : [ "obj-54", 0 ],
									"disabled" : 0,
									"hidden" : 0,
									"source" : [ "obj-38", 0 ]
								}

							}
, 							{
								"patchline" : 								{
									"destination" : [ "obj-59", 1 ],
									"disabled" : 0,
									"hidden" : 0,
									"source" : [ "obj-4", 0 ]
								}

							}
, 							{
								"patchline" : 								{
									"destination" : [ "obj-46", 0 ],
									"disabled" : 0,
									"hidden" : 0,
									"midpoints" : [ 37.0, 432.0, 8.75, 432.0, 8.75, 320.0, 89.0, 320.0 ],
									"source" : [ "obj-41", 0 ]
								}

							}
, 							{
								"patchline" : 								{
									"destination" : [ "obj-45", 0 ],
									"disabled" : 0,
									"hidden" : 0,
									"source" : [ "obj-43", 0 ]
								}

							}
, 							{
								"patchline" : 								{
									"destination" : [ "obj-46", 0 ],
									"disabled" : 0,
									"hidden" : 0,
									"source" : [ "obj-43", 1 ]
								}

							}
, 							{
								"patchline" : 								{
									"destination" : [ "obj-41", 0 ],
									"disabled" : 0,
									"hidden" : 0,
									"source" : [ "obj-45", 0 ]
								}

							}
, 							{
								"patchline" : 								{
									"destination" : [ "obj-45", 1 ],
									"disabled" : 0,
									"hidden" : 0,
									"source" : [ "obj-46", 0 ]
								}

							}
, 							{
								"patchline" : 								{
									"destination" : [ "obj-55", 0 ],
									"disabled" : 0,
									"hidden" : 0,
									"source" : [ "obj-49", 0 ]
								}

							}
, 							{
								"patchline" : 								{
									"destination" : [ "obj-49", 0 ],
									"disabled" : 0,
									"hidden" : 0,
									"source" : [ "obj-54", 0 ]
								}

							}
, 							{
								"patchline" : 								{
									"destination" : [ "obj-11", 0 ],
									"disabled" : 0,
									"hidden" : 0,
									"source" : [ "obj-55", 4 ]
								}

							}
, 							{
								"patchline" : 								{
									"destination" : [ "obj-31", 0 ],
									"disabled" : 0,
									"hidden" : 0,
									"midpoints" : [ 169.5, 275.5, 427.0, 275.5 ],
									"source" : [ "obj-55", 0 ]
								}

							}
, 							{
								"patchline" : 								{
									"destination" : [ "obj-36", 0 ],
									"disabled" : 0,
									"hidden" : 0,
									"midpoints" : [ 187.0, 268.5, 466.0, 268.5 ],
									"source" : [ "obj-55", 1 ]
								}

							}
, 							{
								"patchline" : 								{
									"destination" : [ "obj-56", 1 ],
									"disabled" : 0,
									"hidden" : 0,
									"midpoints" : [ 222.0, 243.5, 50.0, 243.5 ],
									"source" : [ "obj-55", 3 ]
								}

							}
, 							{
								"patchline" : 								{
									"destination" : [ "obj-56", 0 ],
									"disabled" : 0,
									"hidden" : 0,
									"midpoints" : [ 204.5, 243.5, 37.0, 243.5 ],
									"source" : [ "obj-55", 2 ]
								}

							}
, 							{
								"patchline" : 								{
									"destination" : [ "obj-37", 0 ],
									"disabled" : 0,
									"hidden" : 0,
									"source" : [ "obj-56", 1 ]
								}

							}
, 							{
								"patchline" : 								{
									"destination" : [ "obj-43", 0 ],
									"disabled" : 0,
									"hidden" : 0,
									"source" : [ "obj-56", 0 ]
								}

							}
, 							{
								"patchline" : 								{
									"destination" : [ "obj-69", 0 ],
									"disabled" : 0,
									"hidden" : 0,
									"source" : [ "obj-57", 0 ]
								}

							}
, 							{
								"patchline" : 								{
									"destination" : [ "obj-32", 0 ],
									"disabled" : 0,
									"hidden" : 0,
									"midpoints" : [ 239.5, 579.5, 362.0, 579.5 ],
									"source" : [ "obj-59", 0 ]
								}

							}
, 							{
								"patchline" : 								{
									"destination" : [ "obj-32", 0 ],
									"disabled" : 0,
									"hidden" : 0,
									"source" : [ "obj-62", 0 ]
								}

							}
, 							{
								"patchline" : 								{
									"destination" : [ "obj-70", 0 ],
									"disabled" : 0,
									"hidden" : 0,
									"source" : [ "obj-67", 0 ]
								}

							}
, 							{
								"patchline" : 								{
									"destination" : [ "obj-67", 0 ],
									"disabled" : 0,
									"hidden" : 0,
									"source" : [ "obj-69", 0 ]
								}

							}
, 							{
								"patchline" : 								{
									"destination" : [ "obj-12", 0 ],
									"disabled" : 0,
									"hidden" : 0,
									"source" : [ "obj-70", 4 ]
								}

							}
, 							{
								"patchline" : 								{
									"destination" : [ "obj-56", 3 ],
									"disabled" : 0,
									"hidden" : 0,
									"midpoints" : [ 344.5, 243.5, 76.0, 243.5 ],
									"source" : [ "obj-70", 3 ]
								}

							}
, 							{
								"patchline" : 								{
									"destination" : [ "obj-56", 2 ],
									"disabled" : 0,
									"hidden" : 0,
									"midpoints" : [ 327.0, 243.5, 63.0, 243.5 ],
									"source" : [ "obj-70", 2 ]
								}

							}
, 							{
								"patchline" : 								{
									"destination" : [ "obj-3", 1 ],
									"disabled" : 0,
									"hidden" : 0,
									"source" : [ "obj-85", 0 ]
								}

							}
 ]
					}
,
					"patching_rect" : [ 251.0, 210.0, 107.0, 18.0 ],
					"saved_object_attributes" : 					{
						"default_fontface" : 0,
						"default_fontname" : "Arial",
						"default_fontsize" : 10.0,
						"description" : "",
						"digest" : "",
						"fontface" : 0,
						"fontname" : "Arial",
						"fontsize" : 10.0,
						"globalpatchername" : "",
						"tags" : ""
					}
,
					"text" : "p computer_keyboard",
					"varname" : "keyboard"
				}

			}
, 			{
				"box" : 				{
					"annotation" : "[PT] Seleccionar método de entrada (teclado e rato do computador ou controlador MIDI). [ENG] Select input device: computer keyboard + mouse OR midi controller.",
					"fontname" : "Arial",
					"fontsize" : 16.0,
					"hint" : "",
					"htabcolor" : [ 0.727799, 1.0, 0.651992, 1.0 ],
					"id" : "obj-24",
					"maxclass" : "tab",
					"numinlets" : 1,
					"numoutlets" : 3,
					"outlettype" : [ "int", "", "" ],
					"parameter_enable" : 0,
					"patching_rect" : [ 279.5, 93.0, 50.0, 53.0 ],
					"presentation" : 1,
					"presentation_rect" : [ 15.0, 49.0, 161.0, 20.0 ],
					"rounded" : 6.0,
					"tabs" : [ "keyboard&mouse", "midi" ],
					"varname" : "input_mode"
				}

			}
, 			{
				"box" : 				{
					"annotation" : "[PT] Seleccionar dispositivo MIDI de entrada. [ENG] Select input MIDI device.",
					"fontname" : "Arial",
					"fontsize" : 14.0,
					"hint" : "",
					"id" : "obj-19",
					"items" : [ "to Max 1", ",", "to Max 2", ",", "from tuttifonia 1", ",", "from tuttifonia 2", ",", "from DigiAmbient 1", ",", "from DigiAmbient 2", ",", "from DigiAmbient 1", ",", "from DigiAmbient 2" ],
					"maxclass" : "umenu",
					"numinlets" : 1,
					"numoutlets" : 3,
					"outlettype" : [ "int", "", "" ],
					"parameter_enable" : 0,
					"patching_rect" : [ 80.5, 318.0, 100.0, 22.0 ],
					"pattrmode" : 1,
					"presentation" : 1,
					"presentation_rect" : [ 178.0, 48.0, 110.0, 22.0 ],
					"varname" : "midi_device"
				}

			}
, 			{
				"box" : 				{
					"fontname" : "Arial",
					"fontsize" : 10.0,
					"id" : "obj-16",
					"maxclass" : "newobj",
					"numinlets" : 2,
					"numoutlets" : 1,
					"outlettype" : [ "" ],
					"patching_rect" : [ 80.5, 298.0, 45.0, 18.0 ],
					"text" : "midiinfo"
				}

			}
, 			{
				"box" : 				{
					"annotation" : "[PT] Ligar/desligar áudio. [ENG] Turn audio processing on or off. ",
					"bgcolor" : [ 1.0, 1.0, 1.0, 0.0 ],
					"hint" : "",
					"id" : "obj-7",
					"maxclass" : "ezdac~",
					"numinlets" : 2,
					"numoutlets" : 0,
					"ongradcolor1" : [ 0.727799, 1.0, 0.651992, 1.0 ],
					"ongradcolor2" : [ 0.2, 0.8, 0.6, 1.0 ],
					"patching_rect" : [ 366.0, 578.0, 50.0, 50.0 ],
					"presentation" : 1,
					"presentation_rect" : [ 284.5, 362.25, 45.5, 45.5 ],
					"prototypename" : "oi.ezdac",
					"varname" : "audio"
				}

			}
, 			{
				"box" : 				{
					"hint" : "synth",
					"id" : "obj-10",
					"maxclass" : "bpatcher",
					"name" : "rp.simpler.maxpat",
					"numinlets" : 3,
					"numoutlets" : 2,
					"outlettype" : [ "signal", "" ],
					"patching_rect" : [ 15.0, 500.0, 339.0, 139.0 ],
					"presentation" : 1,
					"presentation_rect" : [ 5.0, 218.0, 339.0, 139.0 ],
					"varname" : "sampler"
				}

			}
, 			{
				"box" : 				{
					"fontname" : "Arial",
					"fontsize" : 10.0,
					"id" : "obj-100",
					"maxclass" : "message",
					"numinlets" : 2,
					"numoutlets" : 1,
					"outlettype" : [ "" ],
					"patching_rect" : [ 35.0, 63.0, 32.5, 16.0 ],
					"text" : "flush"
				}

			}
, 			{
				"box" : 				{
					"bgcolor" : [ 0.666667, 0.666667, 0.666667, 0.0 ],
					"border" : 2,
					"bordercolor" : [ 0.501961, 0.501961, 0.501961, 1.0 ],
					"hint" : "presets",
					"id" : "obj-121",
					"maxclass" : "panel",
					"numinlets" : 1,
					"numoutlets" : 0,
					"patching_rect" : [ 50.0, 132.0, 82.0, 55.0 ],
					"presentation" : 1,
					"presentation_rect" : [ 4.0, 4.75, 332.0, 30.25 ]
				}

			}
, 			{
				"box" : 				{
					"bgcolor" : [ 0.666667, 0.666667, 0.666667, 0.0 ],
					"border" : 2,
					"bordercolor" : [ 0.501961, 0.501961, 0.501961, 1.0 ],
					"hint" : "audio",
					"id" : "obj-130",
					"maxclass" : "panel",
					"numinlets" : 1,
					"numoutlets" : 0,
					"patching_rect" : [ 520.0, 384.0, 255.72168, 46.25 ],
					"presentation" : 1,
					"presentation_rect" : [ 5.0, 359.0, 332.0, 53.0 ]
				}

			}
, 			{
				"box" : 				{
					"bgcolor" : [ 0.666667, 0.666667, 0.666667, 0.0 ],
					"border" : 1,
					"bordercolor" : [ 0.701961, 0.701961, 0.701961, 1.0 ],
					"drag_window" : 1,
					"id" : "obj-134",
					"ignoreclick" : 0,
					"maxclass" : "panel",
					"numinlets" : 1,
					"numoutlets" : 0,
					"patching_rect" : [ 491.5, 318.0, 24.0, 131.0 ],
					"presentation" : 1,
					"presentation_rect" : [ 17.0, 74.5, 311.0, 130.0 ]
				}

			}
, 			{
				"box" : 				{
					"angle" : 90.0,
					"bgcolor" : [ 1.0, 1.0, 1.0, 0.0 ],
					"border" : 2,
					"bordercolor" : [ 0.501961, 0.501961, 0.501961, 1.0 ],
					"grad1" : [ 0.701961, 0.701961, 0.701961, 1.0 ],
					"grad2" : [ 0.901961, 0.901961, 0.901961, 1.0 ],
					"hint" : "credits",
					"id" : "obj-131",
					"maxclass" : "panel",
					"numinlets" : 1,
					"numoutlets" : 0,
					"patching_rect" : [ 317.0, 318.0, 185.0, 131.0 ],
					"presentation" : 1,
					"presentation_rect" : [ 5.0, 417.0, 332.0, 75.0 ]
				}

			}
, 			{
				"box" : 				{
					"bgcolor" : [ 0.666667, 0.666667, 0.666667, 0.0 ],
					"border" : 2,
					"bordercolor" : [ 0.501961, 0.501961, 0.501961, 1.0 ],
					"hint" : "input",
					"id" : "obj-118",
					"maxclass" : "panel",
					"numinlets" : 1,
					"numoutlets" : 0,
					"patching_rect" : [ 520.0, 332.5, 132.0, 57.5 ],
					"presentation" : 1,
					"presentation_rect" : [ 5.0, 39.0, 332.0, 174.625 ]
				}

			}
, 			{
				"box" : 				{
					"autofit" : 1,
					"background" : 1,
					"id" : "obj-143",
					"maxclass" : "fpic",
					"numinlets" : 1,
					"numoutlets" : 0,
					"patching_rect" : [ 323.0, 398.5, 120.0, 39.0 ],
					"pic" : "CdM_Digitopia-01.png",
					"presentation" : 1,
					"presentation_rect" : [ 13.0, 432.0, 180.0, 47.375 ]
				}

			}
 ],
		"lines" : [ 			{
				"patchline" : 				{
					"destination" : [ "obj-7", 0 ],
					"disabled" : 0,
					"hidden" : 0,
					"source" : [ "obj-1", 0 ]
				}

			}
, 			{
				"patchline" : 				{
					"destination" : [ "obj-40", 1 ],
					"disabled" : 0,
					"hidden" : 0,
					"midpoints" : [ 24.5, 648.0, 361.5, 648.0, 361.5, 490.0, 492.5, 490.0 ],
					"source" : [ "obj-10", 0 ]
				}

			}
, 			{
				"patchline" : 				{
					"destination" : [ "obj-40", 0 ],
					"disabled" : 0,
					"hidden" : 0,
					"midpoints" : [ 24.5, 648.0, 355.0, 648.0, 355.0, 490.0, 375.5, 490.0 ],
					"source" : [ "obj-10", 0 ]
				}

			}
, 			{
				"patchline" : 				{
					"destination" : [ "obj-66", 0 ],
					"disabled" : 0,
					"hidden" : 0,
					"source" : [ "obj-100", 0 ]
				}

			}
, 			{
				"patchline" : 				{
					"destination" : [ "obj-98", 0 ],
					"disabled" : 0,
					"hidden" : 0,
					"source" : [ "obj-103", 0 ]
				}

			}
, 			{
				"patchline" : 				{
					"destination" : [ "obj-101", 0 ],
					"disabled" : 0,
					"hidden" : 0,
					"source" : [ "obj-104", 0 ]
				}

			}
, 			{
				"patchline" : 				{
					"destination" : [ "obj-101", 0 ],
					"disabled" : 0,
					"hidden" : 0,
					"source" : [ "obj-105", 0 ]
				}

			}
, 			{
				"patchline" : 				{
					"destination" : [ "obj-104", 0 ],
					"disabled" : 0,
					"hidden" : 0,
					"source" : [ "obj-107", 0 ]
				}

			}
, 			{
				"patchline" : 				{
					"destination" : [ "obj-105", 0 ],
					"disabled" : 0,
					"hidden" : 0,
					"source" : [ "obj-108", 0 ]
				}

			}
, 			{
				"patchline" : 				{
					"destination" : [ "obj-110", 0 ],
					"disabled" : 0,
					"hidden" : 0,
					"source" : [ "obj-109", 0 ]
				}

			}
, 			{
				"patchline" : 				{
					"destination" : [ "obj-101", 0 ],
					"disabled" : 0,
					"hidden" : 0,
					"source" : [ "obj-110", 0 ]
				}

			}
, 			{
				"patchline" : 				{
					"destination" : [ "obj-142", 1 ],
					"disabled" : 0,
					"hidden" : 0,
					"source" : [ "obj-127", 0 ]
				}

			}
, 			{
				"patchline" : 				{
					"destination" : [ "obj-141", 0 ],
					"disabled" : 0,
					"hidden" : 0,
					"source" : [ "obj-137", 5 ]
				}

			}
, 			{
				"patchline" : 				{
					"destination" : [ "obj-90", 0 ],
					"disabled" : 0,
					"hidden" : 0,
					"midpoints" : [ 117.0, 413.5, 38.0, 413.5 ],
					"source" : [ "obj-137", 0 ]
				}

			}
, 			{
				"patchline" : 				{
					"destination" : [ "obj-10", 1 ],
					"disabled" : 0,
					"hidden" : 0,
					"source" : [ "obj-141", 0 ]
				}

			}
, 			{
				"patchline" : 				{
					"destination" : [ "obj-137", 0 ],
					"disabled" : 0,
					"hidden" : 0,
					"source" : [ "obj-142", 0 ]
				}

			}
, 			{
				"patchline" : 				{
					"destination" : [ "obj-147", 0 ],
					"disabled" : 0,
					"hidden" : 0,
					"source" : [ "obj-146", 0 ]
				}

			}
, 			{
				"patchline" : 				{
					"destination" : [ "obj-143", 0 ],
					"disabled" : 0,
					"hidden" : 0,
					"source" : [ "obj-147", 0 ]
				}

			}
, 			{
				"patchline" : 				{
					"destination" : [ "obj-19", 0 ],
					"disabled" : 0,
					"hidden" : 0,
					"source" : [ "obj-16", 0 ]
				}

			}
, 			{
				"patchline" : 				{
					"destination" : [ "obj-127", 0 ],
					"disabled" : 0,
					"hidden" : 0,
					"source" : [ "obj-19", 1 ]
				}

			}
, 			{
				"patchline" : 				{
					"destination" : [ "obj-13", 0 ],
					"disabled" : 0,
					"hidden" : 0,
					"source" : [ "obj-23", 0 ]
				}

			}
, 			{
				"patchline" : 				{
					"destination" : [ "obj-142", 0 ],
					"disabled" : 0,
					"hidden" : 0,
					"midpoints" : [ 289.0, 366.5, 117.0, 366.5 ],
					"source" : [ "obj-24", 0 ]
				}

			}
, 			{
				"patchline" : 				{
					"destination" : [ "obj-36", 0 ],
					"disabled" : 0,
					"hidden" : 0,
					"source" : [ "obj-24", 0 ]
				}

			}
, 			{
				"patchline" : 				{
					"destination" : [ "obj-44", 0 ],
					"disabled" : 0,
					"hidden" : 0,
					"source" : [ "obj-288", 0 ]
				}

			}
, 			{
				"patchline" : 				{
					"destination" : [ "obj-66", 0 ],
					"disabled" : 0,
					"hidden" : 0,
					"source" : [ "obj-34", 0 ]
				}

			}
, 			{
				"patchline" : 				{
					"destination" : [ "obj-90", 0 ],
					"disabled" : 0,
					"hidden" : 0,
					"midpoints" : [ 260.5, 239.75, 38.0, 239.75 ],
					"source" : [ "obj-34", 0 ]
				}

			}
, 			{
				"patchline" : 				{
					"destination" : [ "obj-34", 0 ],
					"disabled" : 0,
					"hidden" : 0,
					"source" : [ "obj-36", 0 ]
				}

			}
, 			{
				"patchline" : 				{
					"destination" : [ "obj-100", 0 ],
					"disabled" : 0,
					"hidden" : 0,
					"midpoints" : [ 24.5, 46.0, 44.5, 46.0 ],
					"source" : [ "obj-39", 0 ]
				}

			}
, 			{
				"patchline" : 				{
					"destination" : [ "obj-103", 0 ],
					"disabled" : 0,
					"hidden" : 0,
					"midpoints" : [ 24.5, 194.5, 24.5, 194.5 ],
					"source" : [ "obj-39", 0 ]
				}

			}
, 			{
				"patchline" : 				{
					"destination" : [ "obj-7", 1 ],
					"disabled" : 0,
					"hidden" : 0,
					"source" : [ "obj-40", 1 ]
				}

			}
, 			{
				"patchline" : 				{
					"destination" : [ "obj-7", 0 ],
					"disabled" : 0,
					"hidden" : 0,
					"source" : [ "obj-40", 0 ]
				}

			}
, 			{
				"patchline" : 				{
					"destination" : [ "obj-52", 0 ],
					"disabled" : 0,
					"hidden" : 0,
					"midpoints" : [ 552.0, 245.5, 538.5, 245.5, 538.5, 137.5, 552.0, 137.5 ],
					"source" : [ "obj-48", 0 ]
				}

			}
, 			{
				"patchline" : 				{
					"destination" : [ "obj-48", 0 ],
					"disabled" : 0,
					"hidden" : 0,
					"source" : [ "obj-50", 0 ]
				}

			}
, 			{
				"patchline" : 				{
					"destination" : [ "obj-50", 0 ],
					"disabled" : 0,
					"hidden" : 0,
					"source" : [ "obj-52", 0 ]
				}

			}
, 			{
				"patchline" : 				{
					"destination" : [ "obj-16", 0 ],
					"disabled" : 0,
					"hidden" : 0,
					"source" : [ "obj-61", 0 ]
				}

			}
, 			{
				"patchline" : 				{
					"destination" : [ "obj-61", 0 ],
					"disabled" : 0,
					"hidden" : 0,
					"source" : [ "obj-63", 0 ]
				}

			}
, 			{
				"patchline" : 				{
					"destination" : [ "obj-103", 0 ],
					"disabled" : 0,
					"hidden" : 0,
					"source" : [ "obj-90", 0 ]
				}

			}
, 			{
				"patchline" : 				{
					"destination" : [ "obj-93", 0 ],
					"disabled" : 0,
					"hidden" : 0,
					"source" : [ "obj-92", 0 ]
				}

			}
, 			{
				"patchline" : 				{
					"destination" : [ "obj-94", 0 ],
					"disabled" : 0,
					"hidden" : 0,
					"source" : [ "obj-93", 0 ]
				}

			}
, 			{
				"patchline" : 				{
					"destination" : [ "obj-92", 0 ],
					"disabled" : 0,
					"hidden" : 0,
					"midpoints" : [ 375.5, 260.0, 362.0, 260.0, 362.0, 141.0, 375.5, 141.0 ],
					"source" : [ "obj-94", 0 ]
				}

			}
, 			{
				"patchline" : 				{
					"destination" : [ "obj-95", 0 ],
					"disabled" : 0,
					"hidden" : 0,
					"source" : [ "obj-94", 0 ]
				}

			}
, 			{
				"patchline" : 				{
					"destination" : [ "obj-96", 0 ],
					"disabled" : 0,
					"hidden" : 0,
					"source" : [ "obj-95", 0 ]
				}

			}
, 			{
				"patchline" : 				{
					"destination" : [ "obj-99", 0 ],
					"disabled" : 0,
					"hidden" : 0,
					"source" : [ "obj-97", 0 ]
				}

			}
, 			{
				"patchline" : 				{
					"destination" : [ "obj-10", 0 ],
					"disabled" : 0,
					"hidden" : 0,
					"source" : [ "obj-98", 0 ]
				}

			}
, 			{
				"patchline" : 				{
					"destination" : [ "obj-66", 0 ],
					"disabled" : 0,
					"hidden" : 0,
					"source" : [ "obj-99", 0 ]
				}

			}
 ],
		"parameters" : 		{
			"obj-40" : [ "volume", "volume", 0 ]
		}
,
		"dependency_cache" : [ 			{
				"name" : "CdM_Digitopia-01.png",
				"bootpath" : "/Users/tiago/Documents/DIGITOPIA/DigiSoft + manuais/DigiSoft/DigiSimpler_project/source_MAC",
				"patcherrelativepath" : ".",
				"type" : "PNG ",
				"implicit" : 1
			}
, 			{
				"name" : "rp.simpler.maxpat",
				"bootpath" : "/Users/tiago/Documents/DIGITOPIA/DigiSoft + manuais/DigiSoft/DigiSimpler_project/source_MAC",
				"patcherrelativepath" : ".",
				"type" : "JSON",
				"implicit" : 1
			}
, 			{
				"name" : "rp.sampler.maxpat",
				"bootpath" : "/Users/tiago/Documents/DIGITOPIA/DigiSoft + manuais/DigiSoft/DigiSimpler_project/source_MAC",
				"patcherrelativepath" : ".",
				"type" : "JSON",
				"implicit" : 1
			}
, 			{
				"name" : "pitch~.mxo",
				"type" : "iLaX"
			}
 ]
	}

}
